<svg width="27" height="22" viewBox="0 0 27 22" fill="none" xmlns="http://www.w3.org/2000/svg">
<path d="M26.2228 8.06543L25.5284 6.85254C25.4972 6.79907 25.4461 6.76013 25.3863 6.74421C25.3265 6.72829 25.2628 6.73669 25.2091 6.76758L23.7237 7.63477L21.4298 1.30078C21.3087 0.922835 21.0706 0.593157 20.7499 0.35935C20.4292 0.125542 20.0425 -0.00029786 19.6456 5.29429e-07H6.95128C5.93468 5.29429e-07 5.03234 0.656251 4.71886 1.62598L2.53331 7.6377L1.04503 6.77051C0.991376 6.73962 0.927677 6.73122 0.867846 6.74714C0.808014 6.76306 0.756912 6.802 0.725698 6.85547L0.0313619 8.06543C-0.0330912 8.17676 0.00499478 8.31738 0.116323 8.38184L1.88585 9.41309L1.46105 10.585C1.42589 10.6787 1.40832 10.7783 1.40832 10.8779V21.0791C1.40832 21.5391 1.75402 21.9111 2.17882 21.9111H4.15929C4.51964 21.9111 4.83312 21.6387 4.90929 21.2578L5.13488 20.1533H21.1193L21.3448 21.2578C21.4239 21.6387 21.7345 21.9111 22.0948 21.9111H24.0753C24.5001 21.9111 24.8458 21.5391 24.8458 21.0791V10.8779C24.8458 10.7783 24.8282 10.6787 24.7931 10.585L24.3683 9.41309L26.1349 8.38184C26.1881 8.35113 26.2271 8.30077 26.2435 8.2416C26.2599 8.18243 26.2525 8.11917 26.2228 8.06543ZM5.86144 14.1475C5.21398 14.1475 4.68956 13.623 4.68956 12.9756C4.68956 12.3281 5.21398 11.8037 5.86144 11.8037C6.5089 11.8037 7.03331 12.3281 7.03331 12.9756C7.03331 13.623 6.5089 14.1475 5.86144 14.1475ZM17.2286 16.3447C17.2286 16.4736 17.1232 16.5791 16.9943 16.5791H9.25988C9.13097 16.5791 9.0255 16.4736 9.0255 16.3447V13.8838C9.0255 13.7549 9.13097 13.6494 9.25988 13.6494H10.4318C10.5607 13.6494 10.6661 13.7549 10.6661 13.8838V14.9385H15.588V13.8838C15.588 13.7549 15.6935 13.6494 15.8224 13.6494H16.9943C17.1232 13.6494 17.2286 13.7549 17.2286 13.8838V16.3447ZM20.3927 14.1475C19.7452 14.1475 19.2208 13.623 19.2208 12.9756C19.2208 12.3281 19.7452 11.8037 20.3927 11.8037C21.0402 11.8037 21.5646 12.3281 21.5646 12.9756C21.5646 13.623 21.0402 14.1475 20.3927 14.1475ZM4.57238 8.2002L6.70226 2.34375L6.71691 2.30566L6.72863 2.26758C6.76085 2.1709 6.84874 2.10645 6.95128 2.10645H19.4786L21.6876 8.2002H4.57238Z" fill="#393939"/>
</svg>
