<svg width="25" height="25" viewBox="0 0 25 25" fill="none" xmlns="http://www.w3.org/2000/svg">
<path d="M19.7917 3.125H5.20837C4.37957 3.125 3.58472 3.45424 2.99867 4.04029C2.41261 4.62634 2.08337 5.4212 2.08337 6.25V21.875C2.08369 22.0596 2.13305 22.2408 2.2264 22.4C2.31974 22.5592 2.45372 22.6908 2.61462 22.7812C2.77031 22.8695 2.94609 22.9161 3.12504 22.9167C3.312 22.9166 3.4955 22.8662 3.65629 22.7708L8.33337 19.9375C8.50626 19.8346 8.70524 19.7839 8.90629 19.7917H19.7917C20.6205 19.7917 21.4154 19.4624 22.0014 18.8764C22.5875 18.2903 22.9167 17.4955 22.9167 16.6667V6.25C22.9167 5.4212 22.5875 4.62634 22.0014 4.04029C21.4154 3.45424 20.6205 3.125 19.7917 3.125ZM8.33337 12.5C8.12735 12.5 7.92596 12.4389 7.75466 12.3244C7.58335 12.21 7.44984 12.0473 7.371 11.857C7.29216 11.6666 7.27153 11.4572 7.31172 11.2551C7.35192 11.0531 7.45113 10.8674 7.59681 10.7218C7.74248 10.5761 7.92809 10.4769 8.13016 10.4367C8.33222 10.3965 8.54166 10.4171 8.732 10.496C8.92234 10.5748 9.08503 10.7083 9.19949 10.8796C9.31395 11.0509 9.37504 11.2523 9.37504 11.4583C9.37504 11.7346 9.26529 11.9996 9.06994 12.1949C8.87459 12.3903 8.60964 12.5 8.33337 12.5ZM12.5 12.5C12.294 12.5 12.0926 12.4389 11.9213 12.3244C11.75 12.21 11.6165 12.0473 11.5377 11.857C11.4588 11.6666 11.4382 11.4572 11.4784 11.2551C11.5186 11.0531 11.6178 10.8674 11.7635 10.7218C11.9092 10.5761 12.0948 10.4769 12.2968 10.4367C12.4989 10.3965 12.7083 10.4171 12.8987 10.496C13.089 10.5748 13.2517 10.7083 13.3662 10.8796C13.4806 11.0509 13.5417 11.2523 13.5417 11.4583C13.5417 11.7346 13.432 11.9996 13.2366 12.1949C13.0413 12.3903 12.7763 12.5 12.5 12.5ZM16.6667 12.5C16.4607 12.5 16.2593 12.4389 16.088 12.3244C15.9167 12.21 15.7832 12.0473 15.7043 11.857C15.6255 11.6666 15.6049 11.4572 15.6451 11.2551C15.6853 11.0531 15.7845 10.8674 15.9301 10.7218C16.0758 10.5761 16.2614 10.4769 16.4635 10.4367C16.6656 10.3965 16.875 10.4171 17.0653 10.496C17.2557 10.5748 17.4184 10.7083 17.5328 10.8796C17.6473 11.0509 17.7084 11.2523 17.7084 11.4583C17.7084 11.7346 17.5986 11.9996 17.4033 12.1949C17.2079 12.3903 16.943 12.5 16.6667 12.5Z" fill="black"/>
</svg>
