<svg width="30" height="30" viewBox="0 0 30 30" fill="none" xmlns="http://www.w3.org/2000/svg">
<mask id="mask0_1_760" style="mask-type:luminance" maskUnits="userSpaceOnUse" x="0" y="0" width="30" height="30">
<path d="M30 0H0V30H30V0Z" fill="white"/>
</mask>
<g mask="url(#mask0_1_760)">
<path d="M29.875 14.2964C29.3839 10.5156 27.4717 7.06374 24.5268 4.64237C21.5819 2.22101 17.8255 1.01183 14.0212 1.26063C10.2168 1.50942 6.64995 3.19752 4.04555 5.9818C1.44114 8.76607 -0.00535029 12.4376 9.25675e-05 16.2501C-0.00711293 18.2907 0.406415 20.311 1.21486 22.1846C2.02331 24.0584 3.20931 25.7452 4.69885 27.1401C5.83801 28.1947 7.33904 28.7712 8.89134 28.7501H21.1C22.74 28.7539 24.3157 28.1122 25.4863 26.9639C27.1547 25.3406 28.4204 23.3499 29.1824 21.1504C29.9445 18.9509 30.1817 16.6037 29.875 14.2964ZM9.3401 24.5764C9.23164 24.6996 9.09992 24.8004 8.9525 24.8729C8.80507 24.9452 8.64482 24.9879 8.48091 24.9984C8.31699 25.0087 8.15262 24.9869 7.9972 24.9337C7.84177 24.8806 7.69834 24.7974 7.57509 24.6889C5.85707 23.1805 4.6398 21.1841 4.08565 18.9661C3.53149 16.7481 3.66679 14.4139 4.47349 12.2747C5.2802 10.1356 6.71996 8.29326 8.60075 6.99351C10.4815 5.69376 12.7139 4.99836 15 5.00007C15.9483 5.00036 16.8927 5.1192 17.8113 5.35382C17.9704 5.39486 18.1198 5.46682 18.251 5.56561C18.3823 5.6644 18.4928 5.78807 18.5763 5.92956C18.6598 6.07106 18.7145 6.2276 18.7374 6.39026C18.7604 6.55292 18.7512 6.71851 18.71 6.87757C18.669 7.03663 18.597 7.18606 18.4983 7.31731C18.3995 7.44856 18.2758 7.55907 18.1343 7.64252C17.9929 7.72599 17.8363 7.78075 17.6737 7.80371C17.511 7.82667 17.3454 7.81736 17.1863 7.77632C15.2819 7.28272 13.2668 7.44587 11.4666 8.23937C9.66645 9.03286 8.18652 10.4103 7.26614 12.149C6.34575 13.8877 6.0387 15.8861 6.39464 17.8209C6.75057 19.7557 7.74869 21.514 9.22759 22.8114C9.35094 22.9197 9.4517 23.0515 9.52411 23.1989C9.59652 23.3464 9.63917 23.5066 9.64962 23.6705C9.66007 23.8344 9.63811 23.9987 9.585 24.1542C9.53189 24.3096 9.44867 24.4531 9.3401 24.5764ZM15 18.7501C14.6418 18.7547 14.2865 18.6824 13.9587 18.5379C13.6307 18.3932 13.3377 18.1799 13.0994 17.9121C12.8612 17.6444 12.6833 17.3286 12.5778 16.9861C12.4724 16.6435 12.4418 16.2824 12.4881 15.927C12.5344 15.5716 12.6567 15.2304 12.8464 14.9264C13.0363 14.6224 13.2892 14.3627 13.5882 14.165C13.887 13.9674 14.225 13.8362 14.579 13.7806C14.933 13.725 15.2949 13.7461 15.64 13.8426L20.3663 9.11632C20.4817 8.99693 20.6195 8.90171 20.772 8.8362C20.9245 8.77069 21.0887 8.7362 21.2545 8.73476C21.4205 8.73332 21.5852 8.76495 21.7388 8.8278C21.8924 8.89065 22.0319 8.98346 22.1493 9.10082C22.2667 9.2182 22.3595 9.35776 22.4224 9.51138C22.4852 9.665 22.5168 9.8296 22.5154 9.99557C22.5139 10.1615 22.4794 10.3256 22.4139 10.4781C22.3484 10.6306 22.2532 10.7685 22.1338 10.8838L17.4075 15.6101C17.5118 15.9797 17.5284 16.3687 17.4559 16.746C17.3835 17.1231 17.2242 17.4784 16.9904 17.7831C16.7567 18.088 16.455 18.3341 16.1095 18.502C15.764 18.6697 15.3842 18.7547 15 18.7501ZM22.425 24.6889C22.1752 24.8986 21.853 25.0024 21.5277 24.9779C21.2023 24.9535 20.8994 24.8027 20.6837 24.5579C20.4679 24.3131 20.3564 23.9936 20.373 23.6677C20.3897 23.3419 20.533 23.0354 20.7725 22.8139C21.988 21.7479 22.8841 20.3656 23.3609 18.8209C23.8378 17.2761 23.8769 15.6295 23.4738 14.0639C23.3909 13.7426 23.439 13.4016 23.6077 13.1159C23.7762 12.83 24.0513 12.623 24.3725 12.5401C24.6938 12.4572 25.0348 12.5054 25.3205 12.6739C25.6064 12.8424 25.8134 13.1176 25.8963 13.4389C26.131 14.3575 26.2499 15.3019 26.25 16.2501C26.2483 17.8476 25.9062 19.4265 25.2467 20.8815C24.5872 22.3365 23.6253 23.6345 22.425 24.6889Z" fill="black"/>
</g>
</svg>
