<svg width="26" height="26" viewBox="0 0 26 26" fill="none" xmlns="http://www.w3.org/2000/svg">
<mask id="mask0_1_794" style="mask-type:luminance" maskUnits="userSpaceOnUse" x="0" y="0" width="26" height="26">
<path d="M26 0H0V26H26V0Z" fill="white"/>
</mask>
<g mask="url(#mask0_1_794)">
<path d="M12.4583 2.16663C7.3775 2.16663 3.25 6.29413 3.25 11.375C3.25 16.4558 7.3775 20.5833 12.4583 20.5833H13V23.8333C18.265 21.2983 21.6667 16.25 21.6667 11.375C21.6667 6.29413 17.5392 2.16663 12.4583 2.16663ZM13.5417 17.875H11.375V15.7083H13.5417V17.875ZM13.5417 14.0833H11.375C11.375 10.5625 14.625 10.8333 14.625 8.66663C14.625 7.47496 13.65 6.49996 12.4583 6.49996C11.2667 6.49996 10.2917 7.47496 10.2917 8.66663H8.125C8.125 6.27246 10.0642 4.33329 12.4583 4.33329C14.8525 4.33329 16.7917 6.27246 16.7917 8.66663C16.7917 11.375 13.5417 11.6458 13.5417 14.0833Z" fill="black"/>
</g>
</svg>
