<svg width="23" height="23" viewBox="0 0 23 23" fill="none" xmlns="http://www.w3.org/2000/svg">
<path d="M1.875 22.5C1.875 22.5 0 22.5 0 20.625C0 18.75 1.875 13.125 11.25 13.125C20.625 13.125 22.5 18.75 22.5 20.625C22.5 22.5 20.625 22.5 20.625 22.5H1.875ZM11.25 11.25C12.7418 11.25 14.1726 10.6574 15.2275 9.60248C16.2824 8.54758 16.875 7.11684 16.875 5.625C16.875 4.13316 16.2824 2.70242 15.2275 1.64752C14.1726 0.592632 12.7418 0 11.25 0C9.75816 0 8.32742 0.592632 7.27252 1.64752C6.21763 2.70242 5.625 4.13316 5.625 5.625C5.625 7.11684 6.21763 8.54758 7.27252 9.60248C8.32742 10.6574 9.75816 11.25 11.25 11.25Z" fill="black"/>
</svg>
