<svg width="30" height="30" viewBox="0 0 30 30" fill="none" xmlns="http://www.w3.org/2000/svg">
<path fill-rule="evenodd" clip-rule="evenodd" d="M9.89691 0.375619C8.63521 0.818196 7.08232 1.59773 6.81077 1.92495C6.64933 2.11964 6.64283 2.25928 6.78139 2.56345C7.03593 3.12216 6.9999 4.26356 6.70948 4.84021C6.36 5.53407 5.59206 6.31454 4.91598 6.66309C4.27392 6.99402 3.15371 7.05031 2.56345 6.78139C2.25928 6.64283 2.11964 6.64933 1.92495 6.81077C1.36021 7.27948 0 10.5503 0 11.4396C0 11.7659 0.132835 11.9102 0.676237 12.1741C2.65144 13.1338 2.65144 16.8662 0.676237 17.8259C0.132835 18.0898 0 18.2341 0 18.5604C0 19.4497 1.36021 22.7205 1.92495 23.1892C2.11964 23.3507 2.25928 23.3572 2.56345 23.2186C3.12216 22.9641 4.26356 23.0001 4.84021 23.2905C5.53407 23.64 6.31454 24.4079 6.66309 25.084C6.99402 25.7261 7.05031 26.8463 6.78139 27.4365C6.64283 27.7407 6.64933 27.8804 6.81077 28.0751C7.27948 28.6398 10.5503 30 11.4396 30C11.7683 30 11.9108 29.8659 12.1876 29.2961C13.1338 27.3484 16.8662 27.3484 17.8124 29.2961C18.0892 29.8659 18.2316 30 18.5604 30C19.4497 30 22.7205 28.6398 23.1892 28.0751C23.3507 27.8804 23.3572 27.7407 23.2186 27.4365C22.3956 25.6302 24.2408 23.0412 26.351 23.0412C26.734 23.0412 27.2225 23.121 27.4365 23.2186C27.7407 23.3572 27.8804 23.3507 28.0751 23.1892C28.6485 22.7134 30 19.4468 30 18.5369C30 18.1786 29.8883 18.0578 29.3275 17.8098C27.3504 16.9352 27.3478 13.1341 29.3238 12.1741C29.8672 11.9102 30 11.7659 30 11.4396C30 10.5503 28.6398 7.27948 28.0751 6.81077C27.8804 6.64933 27.7407 6.64283 27.4365 6.78139C25.6302 7.60438 23.0412 5.75923 23.0412 3.64902C23.0412 3.26598 23.121 2.77747 23.2186 2.56345C23.3572 2.25928 23.3507 2.11964 23.1892 1.92495C22.7205 1.36021 19.4497 0 18.5604 0C18.2316 0 18.0892 0.134072 17.8124 0.703917C17.1465 2.07433 15.0458 2.57923 13.3307 1.78067C12.6487 1.46335 12.4601 1.28242 12.2023 0.699742C11.9256 0.0743817 11.8401 0.00123732 11.3974 0.0114435C11.1249 0.0177837 10.4497 0.181701 9.89691 0.375619ZM13.0543 6.24974C9.94098 6.96155 7.21794 9.59552 6.32629 12.7577C6.00588 13.8939 6.04778 16.421 6.40454 17.4742C7.45979 20.5907 9.75031 22.8257 12.7577 23.6737C13.8939 23.9941 16.421 23.9522 17.4742 23.5955C19.103 23.0439 20.158 22.402 21.2797 21.2801C24.0283 18.5307 24.7005 14.7173 23.0556 11.2055C21.6564 8.21814 18.6942 6.24479 15.3866 6.09696C14.5274 6.05861 13.6348 6.11706 13.0543 6.24974ZM14.016 10.4327C12.7931 10.8687 12.0405 11.9278 12.0288 13.2291C12.0198 14.2344 12.4022 15.0353 13.1997 15.6807C13.9802 16.3124 15.4038 16.432 16.3568 15.9456C17.8231 15.1976 18.437 13.253 17.6618 11.8124C17.3711 11.2721 16.4378 10.5428 15.816 10.3701C15.0637 10.1612 14.7469 10.1722 14.016 10.4327ZM11.3505 16.9837C10.5292 17.5794 9.86134 18.3677 9.43902 19.2401L9.08598 19.9695L9.5301 20.4332C11.1407 22.1154 13.9976 23.0247 16.3144 22.5926C17.5707 22.3583 19.2461 21.535 20.1634 20.7012L20.9197 20.0139L20.5996 19.2903C20.2257 18.4452 19.095 17.1824 18.3555 16.7841C17.8429 16.508 17.8333 16.509 17.2311 16.9052C15.8739 17.7977 14.0207 17.7668 12.6566 16.8286C12.1214 16.4607 12.062 16.4677 11.3505 16.9837Z" fill="#393939"/>
</svg>
