<svg width="30" height="30" viewBox="0 0 30 30" fill="none" xmlns="http://www.w3.org/2000/svg">
<g clip-path="url(#clip0_1_56)">
<path d="M28.5942 13.9692H26.1567C25.6411 8.62549 21.3755 4.35986 16.0786 3.84424V1.40674C16.0786 0.844238 15.6099 0.328613 15.0005 0.328613C14.438 0.328613 13.9224 0.797363 13.9224 1.40674V3.84424C8.62549 4.35986 4.35986 8.62549 3.84424 13.9692H1.40674C0.844238 13.9692 0.328613 14.438 0.328613 15.0474C0.328613 15.6099 0.797363 16.1255 1.40674 16.1255H3.84424C4.35986 21.4692 8.62549 25.7349 13.9692 26.2505V28.5942C13.9692 29.1567 14.438 29.6724 15.0474 29.6724C15.6099 29.6724 16.1255 29.2036 16.1255 28.5942V26.1567C21.4692 25.6411 25.7349 21.3755 26.2505 16.0317H28.5942C29.1567 16.0317 29.6724 15.563 29.6724 14.9536C29.6724 14.438 29.1567 13.9692 28.5942 13.9692ZM16.0786 24.0474V23.6724C16.0786 23.1099 15.6099 22.5942 15.0005 22.5942C14.438 22.5942 13.9224 23.063 13.9224 23.6724V24.0474C9.75049 23.5786 6.42236 20.2505 5.95361 16.0786H6.32861C6.89111 16.0786 7.40674 15.6099 7.40674 15.0005C7.40674 14.438 6.93799 13.9224 6.32861 13.9224H5.95361C6.42236 9.75049 9.75049 6.42236 13.9224 5.95361V6.32861C13.9224 6.89111 14.3911 7.40674 15.0005 7.40674C15.563 7.40674 16.0786 6.93799 16.0786 6.32861V5.95361C20.2505 6.42236 23.5786 9.75049 24.0474 13.9224H23.6724C23.1099 13.9224 22.5942 14.3911 22.5942 15.0005C22.5942 15.563 23.063 16.0786 23.6724 16.0786H24.0474C23.5317 20.2505 20.2505 23.5317 16.0786 24.0474Z" fill="#393939"/>
<path d="M16.1729 13.9695H13.8291C13.4541 13.9695 13.126 13.6882 13.126 13.3601C13.126 13.032 13.4541 12.7507 13.8291 12.7507H17.2979C17.8604 12.7507 18.376 12.282 18.376 11.6726C18.376 11.0632 17.9072 10.5945 17.2979 10.5945H16.3604C16.3604 10.032 15.8916 9.56323 15.3291 9.56323C14.7666 9.56323 14.2979 10.032 14.2979 10.5945H13.876C12.3291 10.5945 11.0635 11.8132 11.0635 13.3132C11.0635 14.8132 12.3291 16.032 13.876 16.032H16.2197C16.5947 16.032 16.9229 16.3132 16.9229 16.6414C16.9229 16.9695 16.5947 17.2507 16.2197 17.2507H12.2822C11.7197 17.2507 11.2041 17.7195 11.2041 18.3289C11.2041 18.9382 11.6729 19.407 12.2822 19.407H14.3447C14.3447 19.9695 14.8135 20.4382 15.376 20.4382C15.9385 20.4382 16.4072 19.9695 16.4072 19.407C17.8604 19.3132 19.0322 18.1414 19.0322 16.6882C18.9854 15.1882 17.7197 13.9695 16.1729 13.9695Z" fill="#393939"/>
</g>
<defs>
<clipPath id="clip0_1_56">
<rect width="30" height="30" fill="white"/>
</clipPath>
</defs>
</svg>
