<svg width="31" height="31" viewBox="0 0 31 31" fill="none" xmlns="http://www.w3.org/2000/svg">
<mask id="mask0_1_45" style="mask-type:luminance" maskUnits="userSpaceOnUse" x="0" y="0" width="31" height="31">
<path d="M31 0H0V31H31V0Z" fill="white"/>
</mask>
<g mask="url(#mask0_1_45)">
<path d="M15.9038 2C8.77375 2 3 7.78667 3 14.9167C3 22.0467 8.77375 27.8333 15.9038 27.8333C23.0467 27.8333 28.8333 22.0467 28.8333 14.9167C28.8333 7.78667 23.0467 2 15.9038 2ZM15.9167 25.25C10.2075 25.25 5.58333 20.6258 5.58333 14.9167C5.58333 9.2075 10.2075 4.58333 15.9167 4.58333C21.6258 4.58333 26.25 9.2075 26.25 14.9167C26.25 20.6258 21.6258 25.25 15.9167 25.25ZM16.5625 8.45833H14.625V16.2083L21.4063 20.2771L22.375 18.6883L16.5625 15.2396V8.45833Z" fill="#393939"/>
</g>
</svg>
