<svg width="30" height="30" viewBox="0 0 30 30" fill="none" xmlns="http://www.w3.org/2000/svg">
<path fill-rule="evenodd" clip-rule="evenodd" d="M11.2295 0.023678C10.6757 0.076863 9.81136 0.262149 9.25037 0.447922C7.89921 0.895312 6.78007 1.56844 5.72139 2.57041C4.53953 3.68906 3.69048 5.07412 3.22387 6.6448C2.5591 8.88253 2.74393 11.3525 3.7352 13.4767L3.90546 13.8417L3.45231 15.6304C3.20305 16.6141 2.88165 17.8826 2.73809 18.4491C2.59453 19.0155 2.35778 19.9468 2.21193 20.5184C1.63233 22.7905 1.40109 23.7001 1.02426 25.1908C0.808151 26.0457 0.489116 27.3053 0.315253 27.9899C0.141428 28.6746 -0.000448386 29.2813 1.06492e-06 29.3383C0.00127451 29.4989 0.127795 29.74 0.26042 29.8345C0.41784 29.9466 0.656012 29.971 0.88452 29.8986C1.11456 29.8256 2.70184 29.3183 3.37006 29.1041C3.64815 29.015 4.49087 28.7453 5.24277 28.5046C5.99466 28.2641 6.99596 27.9425 7.46792 27.7901C7.93984 27.6377 8.35517 27.513 8.39087 27.513C8.42652 27.513 8.68088 27.5986 8.95605 27.7032C10.9342 28.4553 11.493 28.6669 11.8722 28.8079C12.3551 28.9874 13.4132 29.3945 14.2318 29.7157C14.9483 29.9968 15 29.9966 15.7674 29.7104C16.3485 29.4937 16.8607 29.3061 17.5277 29.0658C18.0595 28.8742 18.5102 28.7107 19.3817 28.3931C21.0545 27.7834 21.264 27.7076 21.5639 27.6031L21.8733 27.4952L25.5654 28.7258C29.5755 30.0625 29.4343 30.0246 29.698 29.8368C29.8439 29.7329 30 29.4315 30 29.2536C30 29.1796 29.9865 29.1274 29.97 29.1377C29.9534 29.1478 29.6922 28.1755 29.3894 26.9769C29.0866 25.7782 28.5601 23.702 28.2195 22.363C27.8788 21.024 27.4143 19.1953 27.1873 18.2992C26.9604 17.4031 26.6586 16.2149 26.5168 15.6587C26.3749 15.1025 26.0883 13.9733 25.8798 13.1493C25.6714 12.3253 25.4159 11.3225 25.3119 10.9208C25.208 10.5191 25.0819 10.0209 25.0317 9.81365C24.9325 9.40457 24.8503 9.23655 24.7015 9.1391C24.6488 9.10453 23.9025 8.90029 23.0432 8.68526C22.1839 8.47028 21.4752 8.28877 21.4685 8.28199C21.4617 8.27522 21.4317 8.10712 21.4019 7.90846C21.1637 6.32276 20.5297 4.85314 19.5183 3.54228C19.226 3.16354 18.4017 2.32865 18.0334 2.03849C16.6806 0.972618 15.2165 0.336571 13.5201 0.0778743C13.0476 0.00577492 11.7382 -0.0251623 11.2295 0.023678ZM11.7785 1.24304C9.45105 1.38038 7.40695 2.40659 5.93046 4.179C3.93554 6.57378 3.51781 10.079 4.88373 12.9622C5.19569 13.6206 5.81567 14.5475 6.24515 14.9975C6.50913 15.2741 7.79044 16.6636 8.41008 17.3452C8.59679 17.5506 8.91841 17.9041 9.12478 18.1307C9.76521 18.8339 10.9131 20.1061 11.5886 20.8614C11.7342 21.0243 11.9251 21.235 12.0127 21.3296L12.1719 21.5016L12.2897 21.3705C12.4666 21.1735 12.9873 20.5965 13.2205 20.3392C13.6018 19.9184 14.0291 19.4441 14.3836 19.0483C14.5773 18.832 14.93 18.4435 15.1673 18.1849C15.4047 17.9264 15.8426 17.446 16.1406 17.1175C16.4385 16.789 16.7686 16.4275 16.8741 16.3142C16.9795 16.2009 17.3173 15.8385 17.6247 15.5089C18.5659 14.4995 18.9383 13.9898 19.3812 13.1044C19.671 12.525 19.8137 12.145 19.9832 11.5005C20.5994 9.1582 20.1692 6.66558 18.8111 4.7095C18.4932 4.25158 18.012 3.69187 17.6951 3.41119C17.5555 3.28759 17.4228 3.16938 17.4003 3.14852C16.8845 2.67203 15.7457 2.01208 14.9247 1.7138C14.0069 1.38034 12.7186 1.18761 11.7785 1.24304ZM11.5284 5.65833C10.3802 5.85155 9.37872 6.59375 8.83455 7.65475C8.10543 9.07632 8.37311 10.8205 9.49382 11.9507C10.115 12.5771 10.797 12.9281 11.6474 13.059C11.994 13.1124 12.663 13.0841 13.0078 13.0016C15.1322 12.493 16.3836 10.3199 15.7482 8.24278C15.2005 6.45221 13.3921 5.34469 11.5284 5.65833ZM11.9845 6.86267C11.4958 6.91177 11.0325 7.08893 10.6682 7.36605C10.2523 7.68239 9.9099 8.18555 9.77675 8.67605C9.68158 9.02677 9.67229 9.63832 9.75723 9.96444C9.93814 10.6589 10.4371 11.2631 11.0976 11.5873C11.7932 11.9288 12.5562 11.922 13.2873 11.5677C13.6926 11.3714 14.1975 10.8701 14.3916 10.4713C14.5797 10.085 14.6538 9.76997 14.6516 9.36641C14.6474 8.59129 14.4133 8.05648 13.8469 7.52748C13.3414 7.05544 12.6221 6.79866 11.9845 6.86267ZM21.4877 10.2575C21.4164 10.9581 21.3272 11.4419 21.1744 11.9568C21.1205 12.1389 21.0686 12.3226 21.0593 12.3651C21.0445 12.4329 21.1288 12.4829 21.7477 12.7737C22.8395 13.2867 23.1834 13.4481 23.4268 13.5612C23.5504 13.6187 23.911 13.7897 24.2281 13.9412C24.7841 14.2069 24.8937 14.2499 24.8553 14.1877C24.8454 14.1717 24.6143 13.2742 24.3418 12.1933C24.0694 11.1123 23.8347 10.2146 23.8205 10.1983C23.801 10.1761 22.3457 9.79915 21.6286 9.63061C21.5572 9.61386 21.5498 9.64664 21.4877 10.2575ZM20.6918 13.7782C20.7032 13.8443 20.8212 14.7074 20.9542 15.6962C21.0871 16.685 21.2244 17.692 21.2592 17.9339L21.3225 18.3738L23.9383 19.6805C25.3771 20.3992 26.5542 20.972 26.5542 20.9533C26.5542 20.9347 26.3434 20.0897 26.0857 19.0756C25.828 18.0615 25.5376 16.9138 25.4402 16.5251L25.2633 15.8184L24.963 15.6773C23.9042 15.1797 23.2894 14.889 22.8462 14.6766C22.5681 14.5432 22.1974 14.3701 22.0223 14.2919C21.8472 14.2136 21.4715 14.039 21.1875 13.9038L20.6711 13.658L20.6918 13.7782ZM19.3928 15.4259C19.1532 15.729 19.0941 15.7959 18.6913 16.2205C18.2733 16.6612 17.321 17.6926 16.9805 18.0734C16.8798 18.186 16.6794 18.4052 16.5352 18.5603C16.391 18.7154 16.1382 18.994 15.9734 19.1794C15.8086 19.3648 15.6606 19.5262 15.6446 19.5381C15.6285 19.55 15.6201 19.7896 15.6259 20.0706L15.6363 20.5815L17.8274 19.7049C19.0325 19.2227 20.0388 18.8146 20.0636 18.7978C20.0983 18.7745 20.0874 18.6155 20.0166 18.112C19.9659 17.7515 19.8987 17.2627 19.8671 17.0258C19.7302 15.9989 19.6216 15.2073 19.6143 15.1825C19.61 15.1678 19.5103 15.2773 19.3928 15.4259ZM4.798 15.4386C4.77695 15.5184 4.61458 16.1569 4.43713 16.8572C4.25971 17.5576 4.00659 18.552 3.87471 19.067C3.46792 20.6554 3.37163 21.0475 3.38504 21.0609C3.39968 21.0755 8.13094 19.0547 8.17206 19.0163C8.18667 19.0026 8.1361 18.9239 8.0597 18.8413C7.98325 18.7587 7.8449 18.6067 7.7522 18.5033C7.51159 18.2351 6.87989 17.5438 6.57239 17.2121C6.06567 16.6656 5.41071 15.9609 5.35513 15.9025C5.3097 15.8547 5.14205 15.6581 4.86377 15.3262C4.84864 15.3081 4.81901 15.3587 4.798 15.4386ZM21.5353 19.9198C21.5353 19.9672 21.9129 22.7504 22.348 25.9106L22.4084 26.3495L25.296 27.3149C28.4293 28.3624 28.3894 28.3495 28.4156 28.3233C28.4254 28.3135 28.2532 27.6004 28.0329 26.7388C27.8126 25.8771 27.4864 24.5939 27.3081 23.8873L26.9837 22.6025L24.2595 21.2398C22.7612 20.4903 21.5353 19.8963 21.5353 19.9198ZM8.50128 20.25C8.30558 20.3326 8.01906 20.457 7.86456 20.5266C7.71006 20.5961 7.18758 20.8211 6.70348 21.0266C4.08742 22.1371 2.99761 22.6102 2.97619 22.6449C2.96229 22.6674 2.79394 23.3251 1.98433 26.5204C1.77552 27.3444 1.58091 28.1006 1.5518 28.2007C1.5027 28.3697 1.50356 28.3814 1.56368 28.3635C1.5993 28.353 2.0835 28.1978 2.6397 28.0188C3.68321 27.6829 6.09451 26.9119 7.20188 26.5601C7.54811 26.4501 7.8392 26.3523 7.84872 26.3428C7.85823 26.3332 8.09277 24.962 8.36986 23.2955C8.64698 21.6291 8.8829 20.2276 8.89421 20.1813C8.90549 20.135 8.90174 20.0977 8.8859 20.0984C8.87006 20.0992 8.69698 20.1674 8.50128 20.25ZM19.6065 20.344C19.2769 20.478 18.8218 20.6603 18.5952 20.7491C18.3686 20.8379 17.6059 21.1425 16.9004 21.4259L15.6176 21.9412V25.1805C15.6176 28.0904 15.6235 28.4176 15.6756 28.3976C15.7075 28.3854 15.9898 28.2839 16.303 28.1722C16.6161 28.0604 17.2937 27.8143 17.8087 27.6253C18.3236 27.4362 19.0652 27.1664 19.4566 27.0256C20.8479 26.525 21.0953 26.4324 21.1218 26.4017C21.1366 26.3846 21.0763 25.8566 20.988 25.2283C20.8996 24.6 20.7757 23.6983 20.7126 23.2245C20.6495 22.7507 20.5308 21.8742 20.4488 21.2768C20.3669 20.6794 20.2997 20.1696 20.2996 20.1439C20.2992 20.0693 20.2401 20.0864 19.6065 20.344ZM14.0071 21.3556C13.832 21.5517 13.6407 21.7659 13.5821 21.8316C12.562 22.974 12.4893 23.0436 12.2842 23.0733C11.9319 23.1241 11.8173 23.0304 10.7485 21.8174C10.4118 21.4352 10.0621 21.054 10.0382 21.0428C10.022 21.0353 9.61805 23.3856 9.50865 24.1234C9.49341 24.2264 9.40374 24.7632 9.30947 25.3163C9.21516 25.8694 9.138 26.3434 9.138 26.3696C9.138 26.4205 9.30748 26.4923 10.4302 26.9175C10.8216 27.0658 11.3356 27.2613 11.5725 27.352C11.8094 27.4427 12.1549 27.5739 12.3403 27.6436C12.5257 27.7132 13.0482 27.9125 13.5014 28.0862L14.3254 28.4022L14.3351 26.5531C14.3405 25.536 14.3405 23.8703 14.3351 22.8515L14.3254 20.9991L14.0071 21.3556ZM0.00936462 29.3108C0.00936462 29.4035 0.0166682 29.4414 0.0256197 29.395C0.0345338 29.3487 0.0345338 29.2728 0.0256197 29.2265C0.0166682 29.1802 0.00936462 29.2181 0.00936462 29.3108Z" fill="#393939"/>
</svg>
