<svg width="30" height="30" viewBox="0 0 30 30" fill="none" xmlns="http://www.w3.org/2000/svg">
<g clip-path="url(#clip0_1_765)">
<path fill-rule="evenodd" clip-rule="evenodd" d="M15 2.5C21.9037 2.5 27.5 8.09625 27.5 15C27.5 21.9037 21.9037 27.5 15 27.5C8.09625 27.5 2.5 21.9037 2.5 15C2.5 8.09625 8.09625 2.5 15 2.5ZM5.25625 17.2625C5.6937 19.1405 6.66411 20.8522 8.05089 22.192C9.43767 23.5317 11.1818 24.4426 13.0737 24.815C12.8325 21.5337 11.7537 19.565 10.3912 18.4762C9.08625 17.4325 7.31625 17.0288 5.25625 17.2612V17.2625ZM19.6087 18.475C18.2463 19.5662 17.1675 21.5337 16.9263 24.815C18.8183 24.4425 20.5626 23.5314 21.9494 22.1914C23.3362 20.8514 24.3065 19.1395 24.7437 17.2612C22.6838 17.0288 20.9137 17.4325 19.6087 18.4762V18.475ZM15 5C12.6702 5.00031 10.4136 5.81378 8.61948 7.30006C6.82536 8.78633 5.60626 10.8522 5.1725 13.1412L5.11875 13.4513L7.88125 12.8988C8.60875 12.7537 9.3 12.37 10.0725 11.8488L10.6687 11.4338C11.665 10.7263 13.1412 10 15 10C16.735 10 18.1363 10.6325 19.125 11.2925L19.9275 11.8488C20.6025 12.305 21.2175 12.655 21.8475 12.8337L22.1187 12.8988L24.8813 13.4513C24.5115 11.0962 23.3128 8.95055 21.5012 7.40105C19.6895 5.85155 17.3839 5.00005 15 5Z" fill="black"/>
</g>
<defs>
<clipPath id="clip0_1_765">
<rect width="30" height="30" fill="white"/>
</clipPath>
</defs>
</svg>
