<svg width="70" height="70" viewBox="0 0 70 70" fill="none" xmlns="http://www.w3.org/2000/svg">
<g clip-path="url(#clip0_131_220)">
<path d="M61.2498 17.5H58.3332V14.5834C58.3332 13.8098 58.0259 13.0679 57.4789 12.521C56.9319 11.974 56.1901 11.6667 55.4165 11.6667C54.643 11.6667 53.9011 11.974 53.3541 12.521C52.8071 13.0679 52.4998 13.8098 52.4998 14.5834V17.5H49.5832C48.8096 17.5 48.0678 17.8073 47.5208 18.3543C46.9738 18.9013 46.6665 19.6431 46.6665 20.4167C46.6665 21.1902 46.9738 21.9321 47.5208 22.4791C48.0678 23.0261 48.8096 23.3334 49.5832 23.3334H52.4998V26.25C52.4998 27.0236 52.8071 27.7654 53.3541 28.3124C53.9011 28.8594 54.643 29.1667 55.4165 29.1667C56.1901 29.1667 56.9319 28.8594 57.4789 28.3124C58.0259 27.7654 58.3332 27.0236 58.3332 26.25V23.3334H61.2498C62.0234 23.3334 62.7653 23.0261 63.3122 22.4791C63.8592 21.9321 64.1665 21.1902 64.1665 20.4167C64.1665 19.6431 63.8592 18.9013 63.3122 18.3543C62.7653 17.8073 62.0234 17.5 61.2498 17.5Z" fill="#E58600"/>
<path d="M29.1667 32.0833C31.4741 32.0833 33.7297 31.3991 35.6483 30.1172C37.5669 28.8352 39.0622 27.0131 39.9453 24.8813C40.8283 22.7495 41.0593 20.4037 40.6092 18.1406C40.159 15.8775 39.0479 13.7987 37.4162 12.1671C35.7846 10.5355 33.7058 9.42434 31.4427 8.97418C29.1796 8.52402 26.8338 8.75505 24.702 9.63808C22.5702 10.5211 20.7481 12.0164 19.4662 13.935C18.1842 15.8536 17.5 18.1092 17.5 20.4167C17.5 23.5109 18.7292 26.4783 20.9171 28.6663C23.105 30.8542 26.0725 32.0833 29.1667 32.0833Z" fill="#E58600"/>
<path d="M46.6667 61.25C47.4402 61.25 48.1821 60.9427 48.7291 60.3958C49.276 59.8488 49.5833 59.1069 49.5833 58.3334C49.5833 52.9185 47.4323 47.7255 43.6034 43.8966C39.7746 40.0677 34.5815 37.9167 29.1667 37.9167C23.7518 37.9167 18.5588 40.0677 14.7299 43.8966C10.901 47.7255 8.75 52.9185 8.75 58.3334C8.75 59.1069 9.05729 59.8488 9.60427 60.3958C10.1513 60.9427 10.8931 61.25 11.6667 61.25" fill="#E58600"/>
</g>
<defs>
<clipPath id="clip0_131_220">
<rect width="70" height="70" fill="white"/>
</clipPath>
</defs>
</svg>
