<svg width="48" height="49" viewBox="0 0 48 49" fill="none" xmlns="http://www.w3.org/2000/svg">
<path d="M23.976 0.916992C10.728 0.916992 0 11.669 0 24.917C0 38.165 10.728 48.917 23.976 48.917C37.248 48.917 48 38.165 48 24.917C48 11.669 37.248 0.916992 23.976 0.916992ZM24 44.117C13.392 44.117 4.8 35.525 4.8 24.917C4.8 14.309 13.392 5.71699 24 5.71699C34.608 5.71699 43.2 14.309 43.2 24.917C43.2 35.525 34.608 44.117 24 44.117ZM25.2 12.917H21.6V27.317L34.2 34.877L36 31.925L25.2 25.517V12.917Z" fill="#E58600"/>
</svg>
