<svg width="30" height="24" viewBox="0 0 30 24" fill="none" xmlns="http://www.w3.org/2000/svg">
<path fill-rule="evenodd" clip-rule="evenodd" d="M12.4022 0.194698C12.1189 0.360161 12.1547 0.537241 12.777 2.04908C13.2985 3.31581 13.5878 3.78072 13.9716 3.96867C14.2854 4.12251 15.7722 6.02093 17.8818 8.96197C21.2135 13.6065 21.2774 13.7132 20.889 13.9852C20.3721 14.3471 20.3873 14.7164 20.9414 15.2705C21.1884 15.5175 21.4204 15.808 21.4567 15.9159C21.4929 16.0238 22.6189 17.6264 23.9587 19.477C27.0017 23.6803 27.4325 23.9186 29.1063 22.3264C30.3383 21.1543 30.4451 21.4054 26.3037 15.7411C24.5751 13.3766 24.6279 13.4471 23.9876 12.6585C23.541 12.1084 23.5364 12.1074 23.0244 12.4429C22.5951 12.7241 22.472 12.738 22.2799 12.5272C21.3574 11.5134 15.7158 3.38683 15.5486 2.83104C15.3983 2.33128 14.982 1.83115 14.0797 1.06698C13.3871 0.480463 12.7968 0.00318804 12.768 0.00618623C12.7391 0.00937181 12.5746 0.0942589 12.4022 0.194698ZM23.865 0.674034C21.9258 1.51409 21.1461 3.34523 21.8682 5.36301C22.1431 6.13111 22.1407 6.14123 21.3066 7.76157L20.4688 9.38865L21.4609 10.768L22.4531 12.1474L23.6743 9.87529C24.838 7.71078 24.9318 7.59292 25.661 7.38323C27.093 6.97136 27.5573 6.61626 28.0912 5.52473C28.5194 4.64963 28.5821 4.33145 28.4864 3.52156C28.4236 2.9922 28.3035 2.49019 28.2192 2.40586C28.135 2.32173 27.8167 2.71543 27.5116 3.28096L26.9569 4.30915L25.8884 4.3099C24.8336 4.31046 24.8125 4.29959 24.2434 3.47247L23.667 2.63447L24.2372 1.50491C24.5507 0.883719 24.743 0.378712 24.6641 0.382647C24.5854 0.386769 24.2258 0.517753 23.865 0.674034ZM10.5143 2.83029C7.34333 3.0486 7.08754 3.11831 6.36891 3.9578C6.01569 4.37061 5.32161 5.58844 4.82672 6.66423C3.8941 8.69176 3.43987 9.11975 3.43987 7.97107C3.43987 6.97567 2.5065 6.63162 1.38255 7.2129C0.694465 7.56875 0.511201 8.13147 0.89347 8.71499C1.153 9.11113 1.35219 9.17278 2.52711 9.22112L3.86524 9.27622L3.17266 10.1041C1.93871 11.579 1.92691 11.6313 1.98331 15.412L2.03447 18.8329L2.54978 18.8922C3.05966 18.951 3.0651 18.966 3.0651 20.3244C3.0651 21.4035 3.12862 21.7217 3.36154 21.8111C3.89072 22.0142 5.98046 21.9327 6.2132 21.7C6.34399 21.5692 6.43806 20.9422 6.43806 20.2009V18.9266H9.70253H12.9668L13.0854 18.3864C13.299 17.4139 14.4078 16.3392 15.5363 16.0111C16.0939 15.8492 16.5987 15.6376 16.6583 15.5413C16.7239 15.4351 15.2898 15.3663 13.0077 15.3663H9.24886L9.24755 14.9447C9.24699 14.7127 9.0789 14.2701 8.87409 13.9609C8.66928 13.6517 8.50119 13.3354 8.50063 13.2582C8.49988 13.181 10.6361 13.1176 13.2479 13.1176H17.9965L18.4902 12.2105L18.984 11.3034L18.0184 9.93301L17.0528 8.56265L12.2607 8.69925C9.62514 8.77421 6.8951 8.89507 6.19408 8.9674L4.91929 9.09895L5.03641 8.63217C5.10087 8.37545 5.59014 7.31915 6.12381 6.28477C6.78941 4.99443 7.24589 4.33201 7.57831 4.17461C7.84459 4.04831 9.13062 3.88791 10.436 3.81801C12.5092 3.70726 12.8092 3.6503 12.8092 3.36791C12.8092 2.79919 12.3902 2.701 10.5143 2.83029ZM18.0975 13.8629C17.0035 15.944 16.8718 16.1149 16.2236 16.295C15.84 16.4014 15.4549 16.4889 15.3678 16.4895C14.9595 16.4923 14.0424 17.3734 13.7283 18.0648C13.3566 18.8837 13.2531 20.6982 13.5515 21.1698C13.7651 21.5077 13.7724 21.5002 14.3827 20.2852L14.8768 19.3014L15.9511 19.3018C17.0239 19.3022 17.0262 19.3033 17.5702 20.1645L18.1151 21.0267L17.6082 22.0603C17.3294 22.6287 17.1405 23.1329 17.1883 23.1809C17.4326 23.425 19.0207 22.4456 19.5379 21.7316C20.3066 20.6705 20.4278 19.8872 20.0281 18.5667L19.703 17.4931L20.1823 16.547C20.6064 15.7103 20.6309 15.5604 20.3956 15.2495C20.0435 14.7846 20.0495 14.2528 20.4111 13.8531C20.6808 13.5552 20.6487 13.4506 20.0187 12.5735C19.6413 12.0482 19.3194 11.6199 19.3033 11.6216C19.2872 11.6232 18.7445 12.6319 18.0975 13.8629ZM3.25248 14.242V15.3663H5.78221C8.58608 15.3663 8.69588 15.3076 7.92235 14.2212C7.30529 13.3545 6.64662 13.1176 4.85464 13.1176H3.25248V14.242ZM23.6777 14.5289C23.6777 14.9051 27.7477 20.5024 28.0753 20.5766C28.7517 20.7302 28.3861 20.0135 26.3777 17.2484C24.3648 14.4773 23.6777 13.7851 23.6777 14.5289ZM22.412 15.4043C22.256 15.5925 22.7044 16.3319 24.3221 18.5534C26.2608 21.2152 27.0506 22.0131 27.0506 21.3091C27.0506 21.0462 23.6053 16.164 22.9489 15.4965C22.6787 15.222 22.5779 15.2046 22.412 15.4043Z" fill="#393939"/>
</svg>
