<svg width="128" height="128" viewBox="0 0 128 128" fill="none" xmlns="http://www.w3.org/2000/svg">
<g clip-path="url(#clip0_2097_373)">
<path fill-rule="evenodd" clip-rule="evenodd" d="M118.238 64.2353C118.238 71.3176 116.843 78.3305 114.133 84.8737C111.423 91.4169 107.45 97.3622 102.442 102.37C97.4345 107.378 91.4892 111.351 84.946 114.061C78.4028 116.771 71.3898 118.166 64.3075 118.166C57.2252 118.166 50.2122 116.771 43.669 114.061C37.1258 111.351 31.1805 107.378 26.1726 102.37C21.1646 97.3622 17.1921 91.4169 14.4818 84.8737C11.7716 78.3305 10.3766 71.3176 10.3766 64.2353C10.3766 49.9319 16.0586 36.2144 26.1726 26.1004C36.2866 15.9864 50.0041 10.3044 64.3075 10.3044C78.6109 10.3044 92.3284 15.9864 102.442 26.1004C112.556 36.2144 118.238 49.9319 118.238 64.2353ZM127.756 64.2353C127.756 99.2777 99.3499 127.683 64.3075 127.683C29.2651 127.683 0.859375 99.2777 0.859375 64.2353C0.859375 29.1929 29.2651 0.787159 64.3075 0.787159C99.3499 0.787159 127.756 29.1929 127.756 64.2353Z" fill="#57A65A"/>
<path d="M45.465 67.2174L53.2247 74.9707C59.2903 62.2177 66.3204 53.9694 72.2782 48.7603C74.9707 46.3704 77.9126 44.2773 81.0531 42.517C82.202 41.8846 83.3886 41.3231 84.6061 40.8356L84.8599 40.7405L84.9488 40.7087L84.9868 40.696H84.9995L85.0122 40.6897C86.203 40.3042 87.4977 40.4033 88.616 40.9656C89.7342 41.528 90.5858 42.5082 90.9864 43.6941C91.3869 44.8799 91.3042 46.1758 90.756 47.301C90.2078 48.4262 89.2384 49.2902 88.0577 49.7057L87.9943 49.7311C87.1888 50.0624 86.4029 50.4395 85.6404 50.8604C83.1013 52.2892 80.7232 53.9867 78.5469 55.9236C72.7731 60.9741 65.2798 69.8632 59.2079 85.0399C58.9153 85.7704 58.4461 86.4168 57.8424 86.9215C57.2387 87.4262 56.5193 87.7732 55.7485 87.9317C54.9778 88.0901 54.1798 88.0549 53.426 87.8293C52.6722 87.6037 51.9861 87.1946 51.4291 86.6388L38.7395 73.9492C38.2848 73.5105 37.922 72.9855 37.6724 72.4051C37.4227 71.8246 37.2911 71.2003 37.2854 70.5684C37.2796 69.9366 37.3997 69.3099 37.6387 68.725C37.8777 68.1401 38.2307 67.6086 38.6773 67.1616C39.1239 66.7146 39.6551 66.361 40.2398 66.1215C40.8245 65.8819 41.451 65.7612 42.0829 65.7664C42.7147 65.7716 43.3392 65.9026 43.9199 66.1517C44.5006 66.4008 45.0258 66.7631 45.465 67.2174Z" fill="#57A65A"/>
</g>
<defs>
<clipPath id="clip0_2097_373">
<rect width="126.896" height="126.896" fill="white" transform="translate(0.859375 0.78717)"/>
</clipPath>
</defs>
</svg>
